# xmcd
#
# Track frame offsets:
#	150
#	17581
#	32536
#	48526
#	65160
#	84247
#	102323
#	119887
#	138194
#	156090
#	173498
#
# Disc length: 2554 seconds
#
# Revision: 13
# Processed by: cddbd v1.5.2PL0 Copyright (c) Steve Scherf et al.
# Submitted via: Jack! The Knife 20 Magnifico
#
DISCID=8b09f80b
DTITLE=Nek - Le Cose Da Difendere
DYEAR=2002
DGENRE=Pop
TTITLE0=Le Cose Da Difendere
TTITLE1=Sei Solo Tu (featuring Laura Pausini)
TTITLE2=Parliamo Al Singolare
TTITLE3=Quando Non Ci Sei
TTITLE4=Fatti Amare
TTITLE5=Ciele E Terra
TTITLE6=Tutto Di Te
TTITLE7=Labirinto
TTITLE8=La Mia Natura
TTITLE9=Di Conseguenza
TTITLE10=Cielo E Terra (duet with Dante Thomas)
EXTD=Dado Parisini
EXTT0=Filippo Neviani
EXTT1=Filippo Neviani
EXTT2=Filippo Neviani
EXTT3=Filippo Neviani
EXTT4=Filippo Neviani
EXTT5=Filippo Neviani
EXTT6=Filippo Neviani
EXTT7=Filippo Neviani
EXTT8=Filippo Neviani
EXTT9=Filippo Neviani
EXTT10=Filippo Neviani
PLAYORDER=
